<svg width='200' height='200' fill="#70C041" xmlns="http://www.w3.org/2000/svg" xmlns:xlink="http://www.w3.org/1999/xlink" version="1.1" x="0px" y="0px" viewBox="0 0 512 512" enable-background="new 0 0 512 512" xml:space="preserve"><path fill-rule="evenodd" clip-rule="evenodd" d="M493.754,283.922L290.31,369.586c-10.679,4.086-22.209,6.422-34.302,6.422  c-12.069,0-23.584-2.352-34.212-6.391L18.23,283.906c-3.39-1.469-6.531-3.586-9.296-6.336c-11.913-11.906-11.913-31.211,0-43.125  c2.82-2.812,6.085-4.953,9.507-6.422l25.533-10.742c2.367-1.422,5.093-2.281,8.031-2.281c8.702,0,15.756,7.047,15.756,15.75  c0,7.055-4.648,12.938-11.038,14.961l-7.984,3.32c-2.507,1.344-4.226,3.945-4.226,6.977c0,2.961,1.633,5.523,4.054,6.906  l181.504,75.742c0.523,0.195,0.984,0.305,1.508,0.523c7.531,3.117,15.764,4.82,24.428,4.82c8.577,0,16.757-1.688,24.24-4.75  c0.625-0.25,1.18-0.414,1.789-0.648l181.406-75.688c2.422-1.383,4.055-3.945,4.055-6.906c0-3.047-1.727-5.633-4.234-6.977  l-7.999-3.336c-6.374-2.008-11.022-7.914-11.022-14.945c0-8.703,7.054-15.75,15.757-15.75c2.976,0,5.741,0.875,8.108,2.312  l25.521,10.75c3.414,1.469,6.64,3.586,9.437,6.383c11.913,11.914,11.913,31.219,0,43.125  C500.284,280.336,497.145,282.453,493.754,283.922L493.754,283.922z M493.793,179.891L290.036,265.68  c-10.577,4.016-22.029,6.328-34.028,6.328c-11.96,0-23.373-2.289-33.938-6.273L18.191,179.891c-3.375-1.484-6.492-3.57-9.257-6.312  c-11.913-11.914-11.913-31.234,0-43.148c2.781-2.758,5.937-4.836,9.366-6.344l203.8-85.805C232.658,34.297,244.048,32,256.008,32  c11.983,0,23.412,2.297,33.997,6.312l18.976,7.984c6.515,2.031,11.265,8.039,11.265,15.211c0,8.828-7.156,16.008-15.999,16.008  c-2.711,0-5.203-0.758-7.444-1.938l-15.054-6.281c-0.516-0.195-0.984-0.32-1.5-0.539c-7.483-3.07-15.663-4.758-24.24-4.758  c-8.664,0-16.897,1.727-24.428,4.828c-0.43,0.18-0.805,0.273-1.242,0.43L48.654,145.07c-2.437,1.367-4.14,3.93-4.14,6.945  c0,2.961,1.633,5.508,4.031,6.906l181.762,75.812c0.43,0.18,0.82,0.266,1.273,0.445c7.531,3.102,15.764,4.828,24.428,4.828  c8.577,0,16.757-1.688,24.24-4.758c0.531-0.211,1.016-0.352,1.539-0.555l181.672-75.773c2.406-1.398,4.039-3.945,4.039-6.906  c0-3.016-1.703-5.562-4.148-6.945l-24.653-10.297c-6.078-2.188-10.453-7.93-10.453-14.766c0-8.695,7.047-15.75,15.749-15.75  c2.977,0,5.758,0.883,8.132,2.312l41.653,17.547c3.391,1.453,6.522,3.57,9.288,6.312c11.913,11.914,11.913,31.234,0,43.148  C500.3,176.32,497.168,178.406,493.793,179.891L493.793,179.891z M360.007,104.008c-8.843,0-16.006-7.156-16.006-16  s7.163-16,16.006-16c8.819,0,15.999,7.156,15.999,16S368.826,104.008,360.007,104.008L360.007,104.008z M18.441,332.016  l25.643-10.781c2.328-1.375,5.015-2.219,7.921-2.219c8.702,0,15.756,7.047,15.756,15.75c0,7.117-4.773,13.078-11.272,15.016  l-7.75,3.242c-2.507,1.352-4.226,3.93-4.226,6.977c0,2.984,1.633,5.531,4.054,6.914l181.77,75.844  c0.438,0.164,0.812,0.25,1.242,0.43c7.531,3.102,15.764,4.828,24.428,4.828c8.577,0,16.757-1.703,24.24-4.758  c0.516-0.211,0.984-0.336,1.5-0.539l181.695-75.805c2.422-1.383,4.055-3.93,4.055-6.914c0-3.031-1.727-5.625-4.234-6.977  l-7.804-3.242c-6.491-1.977-11.218-7.914-11.218-15.016c0-8.703,7.054-15.75,15.757-15.75c2.866,0,5.507,0.82,7.819,2.148  l25.811,10.875c3.445,1.484,6.624,3.586,9.437,6.398c11.913,11.914,11.913,31.219,0,43.133c-2.742,2.742-5.882,4.82-9.187,6.297  l-203.772,85.805C279.49,477.719,268.03,480,256.008,480c-11.999,0-23.443-2.312-34.032-6.312L18.082,387.844  c-3.335-1.484-6.421-3.547-9.147-6.273c-11.913-11.914-11.913-31.219,0-43.133C11.754,335.625,15.02,333.508,18.441,332.016  L18.441,332.016z"/></svg>